PathFileType	4	(X/Y/Z)	C:/Users/opensim2020/Desktop/walking_exp_matlab/subject02_walking06_straight_02.trc																																																																																																																									
DataRate	CameraRate	NumFrames	NumMarkers	Units	OrigDataRate	OrigDataStartFrame	OrigNumFrames																																																																																																																					
100	100	6	41	mm	100	1569	183																																																																																																																					
Frame#	Time	LFHD			RFHD			LBHD			RBHD			C7			T10			CLAV			STRN			RBAK			LSHO			LUPA			LELB			LFRM			LWRA			LWRB			LFIN			RSHO			RUPA			RELB			RFRM			RWRA			RWRB			RFIN			LASI			RASI			LPSI			RPSI			LTHI			LKNE			LTIB			LANK			LHEE			LTOE			RTHI			RKNE			RTIB			RANK			RHEE			RTOE			*39			*40		
		X1	Y1	Z1	X2	Y2	Z2	X3	Y3	Z3	X4	Y4	Z4	X5	Y5	Z5	X6	Y6	Z6	X7	Y7	Z7	X8	Y8	Z8	X9	Y9	Z9	X10	Y10	Z10	X11	Y11	Z11	X12	Y12	Z12	X13	Y13	Z13	X14	Y14	Z14	X15	Y15	Z15	X16	Y16	Z16	X17	Y17	Z17	X18	Y18	Z18	X19	Y19	Z19	X20	Y20	Z20	X21	Y21	Z21	X22	Y22	Z22	X23	Y23	Z23	X24	Y24	Z24	X25	Y25	Z25	X26	Y26	Z26	X27	Y27	Z27	X28	Y28	Z28	X29	Y29	Z29	X30	Y30	Z30	X31	Y31	Z31	X32	Y32	Z32	X33	Y33	Z33	X34	Y34	Z34	X35	Y35	Z35	X36	Y36	Z36	X37	Y37	Z37	X38	Y38	Z38	X39	Y39	Z39	X40	Y40	Z40	X41	Y41	Z41
																																																																																																																												
138	1.37	623.28479	1721.56665	969.96326	629.16968	1708.8103	1113.04297	493.31064	1646.19373	970.81866	486.73975	1631.75354	1113.30042	446.0217	1507.46912	1055.19385	395.55722	1231.86829	1074.24463	586.66217	1439.96191	1034.3158	640.03973	1269.5752	1056.46082	396.22067	1338.33374	1135.52844	498.19131	1469.81006	871.5285	430.53607	1279.58374	805.30487	390.10297	1145.10059	803.37207	356.1713	1018.00702	789.86633	375.86142	878.95148	809.47711	326.77341	898.10248	787.36847	320.55713	831.48615	783.32721	542.95618	1489.75586	1232.97314	564.14771	1312.5448	1341.74731	628.08459	1183.04663	1381.3313	706.89929	1090.15173	1396.89465	799.23401	995.04395	1371.78052	766.78241	975.44751	1413.26917	828.91943	940.26306	1411.72791	640.50208	974.10492	949.87036	621.48895	956.27777	1207.6416	422.53732	1011.99304	1017.08081	412.05933	1013.73279	1130.66113	650.56415	673.16998	881.82086	688.01526	477.00128	918.78522	703.2547	283.55612	921.71381	794.95184	77.47848	947.12769	778.16064	41.53061	1004.70325	948.03339	87.1237	921.65375	484.11072	658.49902	1250.26086	434.73694	453.8035	1203.59033	339.8681	289.3566	1200.71912	269.58102	109.21703	1156.83899	226.09091	62.57468	1097.96729	408.35092	35.10313	1178.79578	524.41077	1790.01624	1060.84399	-2845.05859	1033.93042	3360.17798
139	1.38	632.55988	1720.30444	968.09851	638.87012	1707.44214	1111.1991	503.04202	1644.85095	969.17352	496.27768	1630.66895	1111.57007	455.7225	1506.19983	1053.86096	405.8414	1230.30579	1072.78687	596.20667	1438.9884	1032.4552	650.43274	1268.9696	1054.55139	406.10303	1336.99121	1134.73059	507.26053	1468.49854	869.84052	441.02521	1277.96216	803.86053	400.67181	1143.20825	802.02399	366.59775	1016.40601	788.57819	385.16568	877.19226	807.86139	336.69113	896.64349	785.7746	330.23413	829.74951	781.86298	552.94385	1488.57092	1231.30359	574.51666	1311.00317	1339.38354	639.04865	1181.73438	1378.98352	718.04224	1089.04126	1394.15271	810.51349	994.19165	1368.9469	777.88312	974.17969	1410.09314	840.50189	939.66986	1408.77356	652.02911	973.47498	948.01587	632.64618	955.19385	1206.1333	433.92755	1010.44299	1015.66632	423.27078	1012.427	1129.02063	664.70239	672.74878	881.20642	700.66571	476.23285	917.98041	712.72034	282.27328	921.1615	800.53723	74.94135	948.10431	783.13983	39.78086	1005.2583	953.77179	82.47733	923.69568	493.53952	658.08954	1249.51282	443.36664	453.48318	1203.96631	345.37119	290.73535	1200.89087	271.29184	112.08518	1157.52136	226.99127	66.48328	1098.50256	408.47751	34.95476	1179.10583	533.91254	1788.71069	1058.6698	-2845.10083	1033.91956	3360.33643
140	1.39	642.492	1719.17395	966.22552	648.33118	1706.37109	1109.14441	511.84473	1643.76611	967.37061	505.65128	1629.54761	1109.9043	465.02307	1504.87097	1052.1897	416.24899	1228.67676	1071.16968	605.85803	1438.10999	1030.50806	660.78052	1268.34546	1052.52258	416.33313	1335.48279	1133.31946	516.29218	1467.28418	868.11981	450.27396	1276.08398	802.38733	411.11578	1141.66125	800.24011	377.53549	1014.91382	787.00146	396.27966	875.42114	806.37921	347.53928	894.96356	783.95337	341.41904	828.20337	780.26489	562.93518	1487.48914	1229.49084	584.91718	1309.62524	1337.10059	649.72162	1180.24219	1376.02954	728.75842	1087.84387	1391.23181	821.5694	993.17096	1365.63892	789.06879	973.08289	1406.79626	851.58063	938.80695	1405.56909	663.78864	972.91919	945.90436	644.12573	954.30664	1204.44348	445.0976	1008.95398	1013.76459	434.7009	1011.1969	1127.13269	678.56848	672.11163	880.65039	713.03149	475.27109	917.18665	721.27686	280.83743	920.82672	804.81982	72.00909	948.97614	786.41284	36.76883	1006.6803	958.12115	77.13619	925.44263	503.42004	657.625	1248.73132	452.50223	453.13867	1204.36206	351.26651	292.26471	1201.05481	273.24908	115.32491	1158.28748	228.09488	70.88666	1099.31555	408.76343	35.00712	1179.44653	543.90247	1787.77539	1057.31201	-2845.87207	1033.95715	3356.9668
141	1.4	651.71606	1718.0675	964.18329	657.84729	1705.18115	1107.11548	521.01929	1642.78003	965.40961	515.06329	1628.51709	1108.05566	474.43842	1503.31934	1050.3717	426.79016	1226.99512	1069.4209	615.50427	1437.33191	1028.47351	671.31543	1267.83008	1050.42432	426.72348	1333.77319	1131.41809	525.28644	1466.14453	866.41028	460.87463	1274.83484	800.73059	421.71732	1139.86829	798.599	388.18088	1013.16425	785.28595	407.75104	873.69269	804.66809	359.04962	893.22821	781.9704	351.95813	826.36548	778.30444	572.91382	1486.36414	1227.62097	595.11255	1308.54211	1335.24561	660.10504	1178.99756	1373.33679	739.32013	1086.63208	1388.26367	832.28485	992.16656	1362.40149	799.58148	971.80798	1403.45947	862.24701	937.63519	1402.08752	675.76563	972.48505	943.73047	655.89575	953.5874	1202.57849	456.90271	1007.39484	1011.74719	446.30225	1009.9306	1124.96741	692.2594	671.25214	879.68329	724.98883	474.06409	916.41296	729.104	279.2092	920.46588	807.80579	68.88701	949.65979	787.74597	34.01011	1006.70227	961.39526	71.31481	926.8526	513.80164	657.203	1247.89575	462.129	452.94214	1204.87012	357.45544	294.04425	1201.3335	275.49802	118.88811	1159.19177	229.66365	75.66846	1099.91345	408.92886	34.9035	1179.79272	553.16931	1786.53906	1055.18188	-2845.15527	1033.84204	3360.24927
142	1.41	660.54175	1716.72729	961.87927	667.30267	1704.00037	1105.03259	530.16095	1641.74585	963.70886	524.48138	1627.48279	1106.19824	484.1235	1501.87317	1048.80371	437.52911	1225.1687	1067.53101	625.24915	1436.6095	1026.40369	681.93396	1267.40308	1048.19604	436.98727	1331.84436	1130.13904	534.34741	1465.02637	864.57837	470.85709	1273.3208	799.02228	432.9249	1138.23169	796.92926	399.7915	1011.43231	783.47113	419.70187	871.93799	802.78711	371.42737	891.52942	779.95941	364.0752	824.51764	776.37213	582.64484	1485.47986	1225.56409	605.44867	1307.29907	1332.59656	670.18335	1178.0293	1370.94788	749.60229	1085.1875	1385.10876	842.2561	990.96173	1359.03784	809.73608	970.38068	1399.94617	872.43646	936.18701	1398.41162	688.21002	972.2265	941.3764	667.96252	953.03033	1200.52881	469.0986	1005.83215	1009.34424	458.34451	1008.60236	1122.41162	705.24536	670.29797	878.58002	736.22278	472.55566	915.4635	736.22021	277.48615	920.05182	809.91571	65.66384	950.01685	788.93085	31.16414	1007.30292	963.59436	65.23879	928.07983	524.55762	656.86261	1247.13501	472.1618	452.72586	1205.56384	363.90891	296.13788	1201.70728	277.97842	122.94742	1160.14014	231.37656	80.82307	1100.80212	409.18747	34.8664	1180.04602	562.67224	1785.48999	1053.25171	-2845.22144	1033.99756	3360.42139
143	1.42	669.77185	1715.61182	959.75879	676.67548	1702.81738	1102.92407	539.3161	1640.71362	961.71533	533.8808	1626.42505	1104.30237	493.20151	1500.35144	1046.80542	448.31796	1223.27197	1065.41858	634.95044	1435.92883	1024.19897	692.79694	1267.09485	1045.90381	447.29327	1330.32104	1128.51404	543.44556	1464.00562	862.71655	480.64209	1271.83301	797.07416	444.22763	1136.47803	795.37305	412.12595	1009.47681	781.51642	432.108	870.12549	800.7403	383.98398	889.54431	777.86755	377.42917	822.60907	774.29181	592.35577	1484.49988	1223.48816	615.63361	1306.16992	1330.24451	680.2677	1176.4574	1367.77783	759.53033	1083.88184	1382.01904	852.06085	989.30664	1355.33557	819.80646	968.93011	1396.29089	882.36169	934.50952	1394.45972	700.75366	971.91058	939.09888	680.42889	952.62128	1198.30518	481.61679	1004.21564	1006.58942	470.63809	1007.25342	1119.51721	717.75592	668.93951	877.05212	746.64813	470.73828	914.229	742.7796	275.68784	919.75024	812.52393	63.12517	950.70691	790.48785	30.7859	1006.85431	966.37341	57.88687	928.75079	535.72516	656.59125	1246.35779	482.73361	452.56116	1206.48462	370.77005	298.51047	1202.28687	280.85699	127.37906	1161.1698	233.5755	86.62707	1101.64136	409.50348	34.87938	1180.51135	571.95782	1784.4928	1051.46204	-2845.20361	1033.92017	3360.28223
